<?xml version="1.0" encoding="utf-8"?>
<!-- Generator: Adobe Illustrator 16.0.0, SVG Export Plug-In . SVG Version: 6.00 Build 0)  -->
<!DOCTYPE svg PUBLIC "-//W3C//DTD SVG 1.1//EN" "http://www.w3.org/Graphics/SVG/1.1/DTD/svg11.dtd">
<svg version="1.1" id="Layer_1" xmlns="http://www.w3.org/2000/svg" xmlns:xlink="http://www.w3.org/1999/xlink" x="0px" y="0px"
	 width="1251px" height="347px" viewBox="0 0 1251 347" enable-background="new 0 0 1251 347" xml:space="preserve">
<g>
	<path fill="#006838" d="M163.129,314.845c-79.713,0-144.336-64.62-144.336-144.335S83.416,26.172,163.129,26.172
		c79.715,0,144.337,64.623,144.337,144.338S242.844,314.845,163.129,314.845"/>
	<path fill="#FFFFFF" d="M163.129,319.845c-82.344,0-149.336-66.991-149.336-149.335c0-82.345,66.992-149.338,149.336-149.338
		c82.345,0,149.337,66.993,149.337,149.338C312.466,252.854,245.474,319.845,163.129,319.845z M163.129,31.172
		c-76.83,0-139.336,62.507-139.336,139.338c0,76.829,62.506,139.335,139.336,139.335c76.831,0,139.337-62.506,139.337-139.335
		C302.466,93.679,239.959,31.172,163.129,31.172z"/>
</g>
<polygon fill="#05351D" points="244.253,183.496 162.597,42.061 80.938,183.496 120.776,183.496 87.443,265.338 238.327,265.338 
	204.991,183.496 "/>
<g>
	<g>
		<g>
			<path fill="#E2D934" d="M143.371,173.611l15.179,0.098C153.49,173.033,148.432,173.611,143.371,173.611z"/>
		</g>
		<g>
			<path fill="#E2D934" d="M166.723,175.949l-3.794-0.779C164.098,175.655,165.458,175.752,166.723,175.949z"/>
		</g>
		<g>
			<path fill="#E2D934" d="M159.137,154.74c-1.56,1.941-2.632,4.764-3.698,7.002c-1.168,2.238-3.406,4.768-3.699,7.297
				l11.657-19.931C161.986,151.029,160.477,152.898,159.137,154.74z"/>
		</g>
		<g>
			<path fill="#E2D934" d="M163.397,149.108c1.649-2.24,3.162-4.558,4.104-7.025L163.397,149.108z"/>
		</g>
		<g>
			<path fill="#E2D934" d="M158.454,165.731c1.168-2.14,2.14-4.376,2.918-6.713c0.684-2.239,2.531-4.38,2.531-6.718L158.454,165.731
				z"/>
		</g>
		<g>
			<path fill="#E2D934" d="M179.278,171.861c-2.918,0-6.035-0.096-8.953-0.196c-1.947-0.095-3.795-0.384-5.742-0.583
				c-1.36-0.096-4.182,0.199-5.058-0.875l1.656,6.228c0,0.391,0,0.778,0,1.066c-0.485,5.259-2.241,10.026-5.064,14.306
				c-1.552,2.337-2.918,4.48-3.597,7.203c-0.683,2.434-1.654,5.059-3.018,7.201l4.674-4.572c1.847-1.557,4.183-3.408,5.64-5.451
				c1.266-1.852,1.946-4.381,2.629-6.615c1.459-4.572,5.448-8.176,8.462-11.873l2.241-5.152c-0.975-0.488-1.851-1.367-2.917-1.661"
				/>
		</g>
		<path fill-rule="evenodd" clip-rule="evenodd" fill="#E2D934" d="M186.586,168.48c-0.555-0.688-1.71-1.234-2.672-1.305
			c-6.085-0.203-12.233-0.271-18.314-0.405c-0.557,0-1.103-0.073-1.85-0.138c0.276-0.686,0.409-1.301,0.614-1.849
			c3.01-8.065,6.017-16.204,9.021-24.276c1.374-3.625,2.812-7.248,3.963-10.936c0.201-0.687-0.266-1.985-0.875-2.535
			c-0.812-0.82-1.916-0.407-2.686,0.404c-0.403,0.421-0.733,0.895-1.101,1.311c-12.222,14.699-24.46,29.465-36.7,44.166
			c-0.894,1.102-2.39,1.982-1.577,3.76c0.831,1.777,2.521,1.237,3.9,1.237c5.541,0.132,11.071,0.054,17.154,0.054
			c-0.472,1.237-0.677,1.852-0.875,2.467c-4.654,12.314-9.243,24.621-13.821,36.93c-0.4,1.026-0.688,1.982,0.217,2.941
			c1.083,1.09,2.318,0.816,3.686-0.826c13.749-16.063,27.42-32.133,41.151-48.199C186.511,170.455,187.351,169.429,186.586,168.48z"
			/>
	</g>
</g>
<polygon fill="#FFFFFF" points="244.253,183.496 162.597,42.061 80.938,183.496 120.776,183.496 87.443,265.338 238.327,265.338 
	204.991,183.496 "/>
<polyline fill="#FFFFFF" points="148.276,309.966 148.276,246.36 176.915,246.36 176.915,309.925 "/>
<g>
	<g>
		<g>
			<path fill="#006838" d="M143.371,173.611l15.179,0.098C153.49,173.033,148.432,173.611,143.371,173.611z"/>
		</g>
		<g>
			<path fill="#006838" d="M166.723,175.949l-3.794-0.779C164.098,175.655,165.458,175.752,166.723,175.949z"/>
		</g>
		<g>
			<path fill="#006838" d="M159.137,154.74c-1.56,1.941-2.632,4.764-3.698,7.002c-1.168,2.238-3.406,4.768-3.699,7.297
				l11.657-19.931C161.986,151.029,160.477,152.898,159.137,154.74z"/>
		</g>
		<g>
			<path fill="#006838" d="M163.397,149.108c1.649-2.24,3.162-4.558,4.104-7.025L163.397,149.108z"/>
		</g>
		<g>
			<path fill="#006838" d="M158.454,165.731c1.168-2.14,2.14-4.376,2.918-6.713c0.684-2.239,2.531-4.38,2.531-6.718L158.454,165.731
				z"/>
		</g>
		<g>
			<path fill="#006838" d="M179.278,171.861c-2.918,0-6.035-0.096-8.953-0.196c-1.947-0.095-3.795-0.384-5.742-0.583
				c-1.36-0.096-4.182,0.199-5.058-0.875l1.656,6.228c0,0.391,0,0.778,0,1.066c-0.485,5.259-2.241,10.026-5.064,14.306
				c-1.552,2.337-2.918,4.48-3.597,7.203c-0.683,2.434-1.654,5.059-3.018,7.201l4.674-4.572c1.847-1.557,4.183-3.408,5.64-5.451
				c1.266-1.852,1.946-4.381,2.629-6.615c1.459-4.572,5.448-8.176,8.462-11.873l2.241-5.152c-0.975-0.488-1.851-1.367-2.917-1.661"
				/>
		</g>
		<path fill-rule="evenodd" clip-rule="evenodd" fill="#006838" d="M186.586,168.48c-0.555-0.688-1.71-1.234-2.672-1.305
			c-6.085-0.203-12.233-0.271-18.314-0.405c-0.557,0-1.103-0.073-1.85-0.138c0.276-0.686,0.409-1.301,0.614-1.849
			c3.01-8.065,6.017-16.204,9.021-24.276c1.374-3.625,2.812-7.248,3.963-10.936c0.201-0.687-0.266-1.985-0.875-2.535
			c-0.812-0.82-1.916-0.407-2.686,0.404c-0.403,0.421-0.733,0.895-1.101,1.311c-12.222,14.699-24.46,29.465-36.7,44.166
			c-0.894,1.102-2.39,1.982-1.577,3.76c0.831,1.777,2.521,1.237,3.9,1.237c5.541,0.132,11.071,0.054,17.154,0.054
			c-0.472,1.237-0.677,1.852-0.875,2.467c-4.654,12.314-9.243,24.621-13.821,36.93c-0.4,1.026-0.688,1.982,0.217,2.941
			c1.083,1.09,2.318,0.816,3.686-0.826c13.749-16.063,27.42-32.133,41.151-48.199C186.511,170.455,187.351,169.429,186.586,168.48z"
			/>
	</g>
</g>
<text transform="matrix(1 0 0 1 345 180.874)" fill="#FFFFFF" font-family="'Montserrat-SemiBold'" font-size="140">EVERGREEN</text>
<rect x="359" y="219" fill="none" width="880" height="95.845"/>
<text transform="matrix(1 0 0 1 359 274.6494)"><tspan x="0" y="0" fill="#FFFFFF" font-family="'Montserrat-SemiBold'" font-size="75">ELECTRICAL SERVIC</tspan><tspan x="785.541" y="0" fill="#FFFFFF" font-family="'Montserrat-SemiBold'" font-size="75">-</tspan></text>
</svg>
